<svg width="339" height="89" viewBox="0 0 339 89" fill="none" xmlns="http://www.w3.org/2000/svg">
<g clip-path="url(#clip0_149_266)">
<path d="M0 9.29724H13.8345C21.4231 9.29724 28.9994 17.5737 28.9994 39.3164C28.9994 61.0592 20.9673 71.1926 13.8345 71.1926H9.31332V71.2787H0V9.29724ZM12.3315 18.1517H9.31332V62.3381H12.3315C16.9882 62.3381 19.9571 53.5205 19.9571 40.2388C19.9571 26.957 17.4317 18.1394 12.3315 18.1394V18.1517Z" fill="#1A475C"/>
<path d="M34.5063 61.4158V27.0185H43.3762V60.0015C43.3762 63.2359 44.0414 64.6501 45.5936 64.6501C47.7618 64.6501 50.1148 61.9077 51.359 57.7387V27.0062H60.2289V71.2787H54.291L52.6895 64.109C50.201 69.5078 47.4169 71.7214 43.2407 71.7214C37.5615 71.7214 34.5063 67.7369 34.5063 61.4035V61.4158Z" fill="#1A475C"/>
<path d="M65.3657 49.1424C65.3657 34.6678 70.8231 26.5635 79.2987 26.5635C86.1236 26.5635 90.2505 31.8762 91.6303 41.9728L83.0315 43.7437C82.6373 35.996 81.972 33.6471 79.3111 33.6471C75.6769 33.6471 74.5189 38.0251 74.5189 49.1424C74.5189 60.2598 75.6769 64.6378 79.3111 64.6378C81.972 64.6378 82.6373 62.3381 83.0315 54.7626L91.6303 55.2053C90.4723 66.2242 86.2591 71.7214 79.2987 71.7214C70.8724 71.7214 65.3657 63.6171 65.3657 49.1424Z" fill="#1A475C"/>
<path d="M110.516 51.7988L105.28 62.4242V71.2787H96.4102V2.74243L105.28 0V49.9049L113.398 27.0185H122.712L114.458 43.7929L124.609 71.291H115.295L110.503 51.8111L110.516 51.7988Z" fill="#1A475C"/>
<path d="M129.229 8.76843L137.211 9.29724C136.595 15.852 134.686 23.735 131.397 30.7325L127.455 30.2037C129.229 21.7919 129.5 15.5938 129.229 8.78073V8.76843Z" fill="#1A475C"/>
<path d="M152.031 33.6471C150.208 33.6471 148.089 35.418 146.623 38.2465V71.2787H137.753V27.0062H143.79L145.515 32.405C148.311 28.1499 151.366 26.5635 154.384 26.5635C160.064 26.5635 163.476 30.548 163.476 37.3242V71.2787H154.606V38.2957C154.606 35.0613 153.547 33.6471 152.031 33.6471Z" fill="#1A475C"/>
<path d="M181.388 40.2879C181.388 16.0733 188.841 8.41174 198.241 8.41174C205.337 8.41174 211.718 13.3678 213.899 27.8424L204.092 30.0561C203.156 19.9103 201.124 17.2539 198.241 17.2539C194.557 17.2539 191.145 21.8534 191.145 40.2756C191.145 58.6979 194.557 63.2973 198.241 63.2973C201.074 63.2973 203.39 60.5549 204.179 48.9457L214.293 49.8311C212.568 66.5686 206.261 72.1518 198.241 72.1518C188.841 72.1518 181.388 64.4902 181.388 40.2756V40.2879Z" fill="#1A475C"/>
<path d="M232.328 33.6471C230.505 33.6471 228.386 35.418 226.92 38.2465V71.2787H218.05V2.74243L226.92 0V30.9047C229.408 27.7564 232.069 26.5635 234.681 26.5635C240.36 26.5635 243.772 30.548 243.772 37.3242V71.2787H234.902V38.2957C234.902 35.0613 233.843 33.6471 232.328 33.6471Z" fill="#1A475C"/>
<path d="M250.302 49.1424C250.302 34.6678 255.759 26.5635 264.235 26.5635C272.71 26.5635 277.182 33.8684 277.182 47.9004V51.0855H259.443C259.615 60.3335 260.946 64.1951 264.235 64.1951C266.723 64.1951 267.733 61.9815 268.226 56.1769L276.739 56.6196C275.938 66.8022 270.752 71.7214 264.235 71.7214C255.808 71.7214 250.302 63.6171 250.302 49.1424ZM268.756 45.3301C268.67 35.8976 266.846 33.6471 264.235 33.6471C261.044 33.6471 259.751 37.0167 259.492 45.3301H268.756Z" fill="#1A475C"/>
<path d="M298.556 65.966C296.955 69.5078 294.035 71.7214 290.352 71.7214C285.116 71.7214 280.545 67.245 280.545 59.4973C280.545 52.1923 284.623 45.1948 296.868 43.6453V38.1973C296.868 34.7047 296.031 33.6348 293.32 33.6348C290.795 33.6348 287.777 34.2989 284.451 35.8976L282.849 28.9493C287.112 27.3505 291.854 26.5635 295.439 26.5635C301.119 26.5635 305.726 28.5557 305.726 35.8607V71.2787H299.689L298.531 65.966H298.556ZM292.704 64.1951C294.971 64.1951 296.868 61.7601 296.868 57.9969V48.1709C290.167 49.8557 288.886 54.8118 288.886 58.1322C288.886 61.7601 290.438 64.1951 292.704 64.1951Z" fill="#1A475C"/>
<path d="M339 47.7282C338.951 61.7601 335.403 71.7214 328.356 71.7214C325.474 71.7214 322.813 70.0858 320.989 67.1097V88.9877H312.12V27.0062H318.156L319.622 33.7824C320.953 28.9985 323.749 26.5635 328.135 26.5635C335.009 26.5635 339.049 32.5403 339 47.7282ZM325.695 64.6378C328.307 64.6378 329.859 59.8539 329.859 48.1709C329.859 36.4879 328.172 33.6471 325.511 33.6471C322.271 33.6471 320.989 37.5824 320.989 45.1579V55.4267C320.989 61.1821 323.478 64.6378 325.695 64.6378Z" fill="#1A475C"/>
</g>
<defs>
<clipPath id="clip0_149_266">
<rect width="339" height="89" fill="white"/>
</clipPath>
</defs>
</svg>
