<svg width="106" height="101" viewBox="0 0 106 101" fill="none" xmlns="http://www.w3.org/2000/svg">
<g clip-path="url(#clip0_149_279)">
<path d="M67.4805 100.978C67.2715 101 67.0625 101 66.8535 101H66.8315C66.8315 101 66.8315 100.956 66.8425 100.934C67.0515 100.956 67.2715 100.967 67.4805 100.978Z" fill="#9CBDC6"/>
<path d="M11.56 41.7329C11.956 15.3713 34.4165 -1.75884 57.306 0.797566C77.0387 2.99346 94.1976 18.9 94.4176 41.3068C98.5753 45.3599 106.638 57.126 105.307 67.9197C103.041 86.1314 74.0909 92.9922 54.7322 93.4292C33.3826 93.9098 3.26659 86.5356 0.71476 67.9197C-0.64915 57.9235 6.94035 46.6054 11.571 41.7329H11.56Z" fill="#FBF3E6" stroke="#A67C52" stroke-miterlimit="10"/>
<path d="M34.4936 28.7213C36.6054 29.5407 37.4084 32.4904 36.3084 35.3199C35.2085 38.1495 32.6017 39.7773 30.5008 38.9579C28.4 38.1495 27.586 35.2107 28.6859 32.3811C29.8079 29.5516 32.3927 27.9238 34.4936 28.7323V28.7213Z" fill="#333333"/>
<path d="M70.7363 28.7213C68.6245 29.5407 67.8215 32.4904 68.9215 35.3199C70.0214 38.1495 72.6282 39.7773 74.7291 38.9579C76.8299 38.1495 77.6439 35.2107 76.5439 32.3811C75.422 29.5516 72.8372 27.9238 70.7363 28.7323V28.7213Z" fill="#333333"/>
<path d="M21.1957 42.1917C25.1774 42.3009 28.3452 44.617 28.2792 47.4028C28.2132 50.1777 24.9245 52.3299 20.9317 52.2316C16.939 52.1333 13.7822 49.8063 13.8482 47.0314C13.9142 44.2565 17.203 42.0934 21.1957 42.1917Z" fill="#A4485F"/>
<path d="M85.7064 42.2026C89.6771 41.9404 93.0539 43.9615 93.2409 46.7473C93.4279 49.5113 90.3481 51.9584 86.3663 52.2206C82.3846 52.4828 79.0188 50.4617 78.8318 47.6868C78.6449 44.9119 81.7137 42.4538 85.6954 42.1916L85.7064 42.2026Z" fill="#A4485F"/>
<path d="M36.3745 66.3246C36.3745 66.3246 29.8629 80.4067 36.3745 94.0846H71.3082C71.3082 94.0846 64.4446 77.2276 70.2083 66.3246H36.3855H36.3745Z" fill="#B5BE63" stroke="#006837" stroke-miterlimit="10"/>
<path d="M81.2298 61.4959C80.9768 62.9598 79.4149 64.8498 77.622 65.3414C61.2551 69.8206 42.1934 70.487 28.1913 65.2977C26.5634 64.6969 25.0125 62.9598 24.7595 61.4959C23.9126 56.5579 33.174 51.303 36.6058 49.708C37.1667 49.4349 37.5627 48.8886 37.6837 48.2659C38.8276 42.9783 40.7305 40.9681 42.8533 39.974C44.5692 39.1655 46.3951 39.2202 47.286 39.3185C49.4309 39.5588 50.0689 40.4765 52.8187 40.6513C52.8627 40.6513 52.9067 40.6513 52.9507 40.6513C53.1157 40.6513 53.0057 40.6513 53.0387 40.6513C53.0937 40.6513 53.1267 40.6513 53.1817 40.6513C55.9205 40.4765 56.5694 39.5588 58.7033 39.3185C59.5942 39.2202 61.4201 39.1655 63.136 39.974C65.2589 40.9681 67.1617 42.9783 68.3057 48.2659C68.4266 48.8886 68.8226 49.4349 69.3836 49.708C72.8154 51.303 82.0767 56.5579 81.2298 61.4959Z" fill="#FBB03B" stroke="#B45417" stroke-miterlimit="10"/>
<path d="M61.519 44.6607C62.047 45.2178 61.662 46.4305 60.6501 47.3482C59.6491 48.2877 58.4172 48.6045 57.8893 48.0583C57.3613 47.5011 57.7463 46.2884 58.7582 45.3708C59.7591 44.4312 60.9911 44.1144 61.519 44.6607Z" fill="#9E5119"/>
<path d="M46.7141 45.1742C47.528 46.2666 47.704 47.523 47.0881 47.9818C46.4721 48.4407 45.3172 47.9163 44.4922 46.8238C43.6673 45.7313 43.5023 44.4859 44.1182 44.038C44.7232 43.5901 45.8891 44.1035 46.7031 45.1851L46.7141 45.1742Z" fill="#9E5119"/>
<path d="M56.789 82.9303C56.844 83.6077 56.558 84.6565 55.9641 85.4649C55.8541 85.596 54.2922 87.5297 53.3022 87.7919C53.3022 87.9121 53.3022 88.0869 53.3022 88.3272C53.2692 88.5785 53.2583 88.7423 53.2693 88.8625C53.2693 88.9827 53.2913 89.081 53.3132 89.1575C53.1043 89.3651 52.7523 89.4962 52.2353 89.5399C51.9163 89.5617 51.8063 89.1356 51.7844 88.5239C51.7844 88.1852 51.7624 87.9885 51.7844 87.9339C50.9044 88.0104 50.1895 87.9339 49.6065 87.77C49.0015 87.5952 48.0776 87.4095 48.0336 86.9179C48.0006 86.5246 48.3526 85.6397 48.7376 85.6069C48.8585 85.6069 49.0345 85.6288 49.2215 85.738C49.5075 85.88 49.6615 85.9456 49.6835 85.9674C50.3654 86.175 50.9924 86.2733 51.5534 86.2515C51.5094 86.0876 51.4214 84.8968 51.2234 82.6354C51.2014 82.4169 51.2014 82.0782 51.2234 81.6084C51.2344 81.1714 51.2234 80.8219 51.2234 80.6034C49.0345 80.068 47.1317 78.8554 46.9777 76.9435C46.9227 76.2662 46.9557 75.7964 47.0547 75.5124C47.8356 73.6115 49.0235 72.5845 50.6184 72.4534C50.5414 71.4811 50.5634 70.9458 50.7064 70.8584C50.7504 70.8256 50.9264 70.8584 51.2014 70.913L51.6524 71.0004C51.7953 71.503 51.8723 71.8853 51.8943 72.1585L51.9163 72.3988C53.7092 72.6938 54.7432 72.9451 55.0071 73.1745C55.1391 73.2837 55.2271 73.4257 55.2381 73.6224C55.2821 74.1359 55.0731 74.8787 54.6552 74.9224C54.4792 74.9334 54.0282 74.8241 53.2913 74.5729C53.0053 74.4199 52.5543 74.267 51.9713 74.0922L52.0483 74.9661C52.0483 75.3813 52.0813 75.6763 52.1033 75.862C52.1033 75.9822 52.1473 76.157 52.2463 76.3645C52.3123 76.583 52.3563 76.7469 52.3673 76.8671C52.3783 76.9872 52.3453 77.1839 52.2683 77.4679C52.1913 77.7411 52.1583 77.9377 52.1693 78.0579C52.1693 78.178 52.1913 78.3747 52.2353 78.5932C52.2793 78.8117 52.2903 78.9756 52.3013 79.0957L53.8522 79.631C54.8641 79.9697 55.5131 80.4067 55.8321 80.9857C56.2061 81.6194 56.767 82.4278 56.8 82.9085L56.789 82.9303ZM50.7834 74.1686C49.8815 74.3216 49.2435 74.8569 48.8915 75.7418C48.7046 76.2007 48.6386 76.6158 48.6826 77.0309C48.7595 77.9268 49.5735 78.5276 51.1024 78.8445C51.0364 77.4352 50.9374 75.9931 50.8164 74.5619L50.7834 74.1686ZM54.7872 82.8976C54.7212 82.1001 53.9732 81.4446 52.5543 80.9748C52.5213 80.8109 52.5763 81.5647 52.7193 83.2362C52.7853 83.9901 52.9063 84.9077 53.0713 86.0439C54.0172 85.5742 54.8751 83.99 54.7762 82.8976H54.7872Z" fill="#006837"/>
</g>
<defs>
<clipPath id="clip0_149_279">
<rect width="106" height="101" fill="white"/>
</clipPath>
</defs>
</svg>
